<svg xmlns:xlink="http://www.w3.org/1999/xlink" aria-hidden="true" xmlns="http://www.w3.org/2000/svg">
    <symbol id="icon-minus-square" viewBox="0 0 16 16">
        <g id="play_expand" stroke="none" stroke-width="1" fill="none" fill-rule="evenodd">
        <rect id="rectangle" stroke="currentColor" opacity="0.899323091" x="2" y="2" width="12" height="12"></rect>
        <rect id="rectangle" fill="currentColor" opacity="0.802454776" x="4.00073886" y="7.50196767" width="8" height="1"></rect>
        </g>
    </symbol>
    <symbol id="icon-plus-square" viewBox="0 0 16 16">
        <g id="play_retract" stroke="none" stroke-width="1" fill="none" fill-rule="evenodd">
        <rect id="rectangle" stroke="currentColor" opacity="0.899323091" x="2" y="2" width="12" height="12"></rect>
        <path d="M8.50073886,4.00196767 L8.50073886,7.50196767 L12.0007389,7.50196767 L12.0007389,8.50196767 L8.50073886,8.50196767 L8.50073886,12.0019677 L7.50073886,12.0019677 L7.49973886,8.50196767 L4.00073886,8.50196767 L4.00073886,7.50196767 L7.50073886,7.50196767 L7.50073886,4.00196767 L8.50073886,4.00196767 Z" id="shapecombine" fill="currentColor" opacity="0.899323091"></path>
        </g>
    </symbol>
    <symbol id="icon-filesearch" viewBox="0 0 16 16">
        <g id="icon_Query" stroke="none" stroke-width="1"  fill="currentColor" fill-rule="evenodd" opacity="0.600880941">
        <g id="preview" transform="translate(1.000672, 0.843976)"  fill="currentColor">
            <g id="marshalling" transform="translate(0.000000, 3.000000)">
                <path d="M4.6,-5.32907052e-15 C7.14050985,-5.32907052e-15 9.2,2.05949015 9.2,4.6 C9.2,5.53169346 8.92301003,6.39869244 8.44688624,7.12314079 L11.3938996,10.0693917 L10.1493917,11.3138996 L7.21824297,8.38267331 C6.47511367,8.8980148 5.57282305,9.2 4.6,9.2 C2.05949015,9.2 -5.32907052e-15,7.14050985 -5.32907052e-15,4.6 C-5.32907052e-15,2.05949015 2.05949015,-5.32907052e-15 4.6,-5.32907052e-15 Z M4.6,1.6 C2.94314575,1.6 1.6,2.94314575 1.6,4.6 C1.6,6.25685425 2.94314575,7.6 4.6,7.6 C6.25685425,7.6 7.6,6.25685425 7.6,4.6 C7.6,2.94314575 6.25685425,1.6 4.6,1.6 Z" id="shapecombine"></path>
            </g>
            <path d="M8.88969094,4 C8.57081021,3.62042576 8.20247796,3.2837855 7.79461496,3 L12,3 L12,2 L7,2 L7,2.53890499 C6.38650137,2.24746356 5.71160471,2.06428711 5,2.01406563 L5,0 L14,0 L14,10 L9.6610948,10 C10.006647,9.2725957 10.1999998,8.45887778 10.1999998,7.5999999 C10.1999998,7.39730439 10.1892308,7.19712411 10.1682337,7 L12,7 L12,6 L9.9680969,6 C9.8642932,5.65121416 9.7274236,5.31666911 9.5611234,5 L12,5 L12,4 L8.88969094,4 Z" id="path"></path>
        </g>
        </g>
    </symbol>
    <symbol id="icon-folder" viewBox="0 0 16 16">
        <g id="toolWindowProject" stroke="none" stroke-width="1" fill="currentColor" fill-rule="evenodd" opacity="0.600880941">
        <g transform="translate(2.498604, 3.499928)" fill="currentColor" id="path">
            <polygon points="5.75640322 2 11 2 11 9 0 9 0 2 0 0 4.60006714 0"></polygon>
        </g>
        </g>
    </symbol>
    <symbol id="icon-select" viewBox="0 0 16 16">
        <g id="export" stroke="none" stroke-width="1" fill="none" fill-rule="evenodd" opacity="1">
        <g transform="translate(2.000000, 2.000000)" fill="#7FA1E7">
            <path d="M2,2 L2,10 L10,10 L10,12 L0,12 L0,2 L2,2 Z" id="shapecombine"></path>
            <g id="marshalling" transform="translate(7.897997, 4.105003) rotate(180.000000) translate(-7.897997, -4.105003) translate(3.795994, -0.000000)">
                <path d="M6.78979195,1.95399252e-13 L8.20400551,1.41421356 L3.704,5.914 L6,8.21000551 L0,8.21000551 L0,2.21000551 L2.289,4.499 L6.78979195,1.95399252e-13 Z" id="shapecombine"></path>
            </g>
        </g>
        </g>
    </symbol>
    <symbol id="icon-cloud-sync" viewBox="0 0 16 16">
        <g id="cloud-sync" stroke="none" stroke-width="1" fill="none" fill-rule="evenodd">
        <g id="shangchuan-2" transform="translate(1.000000, 2.000000)" fill="currentColor" fill-rule="nonzero" stroke="currentColor">
            <path d="M10.5074525,4.58012205 C10.5074525,2.55406553 8.94006027,0.91162221 7.00658398,0.91162221 C5.07310768,0.91162221 3.50571546,2.55406553 3.50571546,4.58012205 C2.05560824,4.58012205 0.88006407,5.81195454 0.88006407,7.33149693 C0.88006407,8.85103932 2.05560824,10.0828718 3.50571546,10.0828718 L3.50571546,11 C1.72726239,11.0024505 0.229648455,9.60725136 0.0237733054,7.75616822 C-0.182101844,5.90508507 0.969188594,4.18638931 2.7005157,3.76021234 C3.08160746,1.58199692 4.89325695,0 7.00658398,0 C9.11991101,0 10.9315605,1.58199692 11.3126523,3.76021234 C13.0375606,4.19294048 14.1815371,5.90847489 13.9762179,7.75455901 C13.7708987,9.60064313 12.2810965,10.9945282 10.5074525,11 L10.5074525,10.0828718 C11.9575597,10.0828718 13.1331038,8.85103929 13.1331038,7.33149693 C13.1331038,5.81195456 11.9575597,4.58012208 10.5074525,4.58012205 Z" id="shape"></path>
            <path d="M6.99960769,6 C6.4323264,6 5.90898392,6.1898337 5.48842684,6.5098839 C5.39348765,6.58205209 5.38485681,6.72168183 5.46959592,6.806401 C5.53942723,6.87621588 5.65005885,6.88406024 5.72852099,6.82365861 C6.08160063,6.55538124 6.52255787,6.39535613 6.99882307,6.39535614 C8.09729305,6.39535614 9.00274617,7.24176342 9.09611613,8.31565736 C9.10474696,8.41841858 9.09454688,8.5 9.09454688,8.5 L8.60023538,8.50392218 L9.20047077,9.69940383 C9.25225579,9.69940383 10,8.49921556 10,8.49921556 L9.49941153,8.49921556 C9.5017654,8.36899906 9.49313456,8.30938186 9.4907807,8.28427988 C9.3809337,7.00643238 8.30521773,6.00078443 6.99960769,6 Z M6.99960769,10.6046439 C5.83836799,10.6046439 4.89446842,9.66018199 4.89446842,8.5 L4.89446842,8.49764669 L5.39427226,8.49215563 L4.80031385,7.29981174 L4,8.49921556 L4.49980385,8.49921556 C4.49901922,9.90178852 5.6924284,11 6.99960769,11 C7.58807375,11 8.13024715,10.795262 8.55786583,10.454032 C8.64966654,10.3802949 8.65672813,10.2430185 8.57355826,10.1598682 C8.50215771,10.0884845 8.38917223,10.082209 8.31071008,10.1449639 C7.95056885,10.4328522 7.4947038,10.6046439 6.99960769,10.6046439 Z" id="shape" stroke-width="0.6"></path>
        </g>
        </g>
    </symbol>
    <symbol id="icon-down" viewBox="0 0 16 16">
        <g id="ic_down" stroke="none" stroke-width="1" fill="none" fill-rule="evenodd" opacity="1">
        <g id="play_back" transform="translate(3.087500, 4.912500)" fill="currentColor">
            <polygon id="path" transform="translate(5.000000, 3.087500) rotate(-270.000000) translate(-5.000000, -3.087500) " points="1.9125 -0.7375 5.7375 3.0875 1.9125 6.9125 3.0875 8.0875 8.0875 3.0875 3.0875 -1.9125"></polygon>
        </g>
        </g>
    </symbol>
     <symbol id="icon-up" viewBox="0 0 16 16">
        <g id="ic_up" stroke="none" stroke-width="1" fill="none" fill-rule="evenodd" opacity="1">
        <g id="play_back" transform="translate(3.087500, 4.912500)" fill="currentColor">
            <polygon id="path" transform="translate(5.000000, 3.087500) rotate(-90.000000) translate(-5.000000, -3.087500) " points="1.9125 -0.7375 5.7375 3.0875 1.9125 6.9125 3.0875 8.0875 8.0875 3.0875 3.0875 -1.9125"></polygon>
        </g>
        </g>
    </symbol>
    <symbol id="icon-vertical-align-top" viewBox="0 0 16 16">
        <g id="upload_grey" stroke="none" stroke-width="1" fill="none" fill-rule="evenodd">
        <rect id="rectangle" fill="#606060" fill-rule="nonzero" opacity="0" x="0" y="0" width="16" height="16"></rect>
        <g id="upload" transform="translate(2.000000, 2.000000)" fill="#606060" opacity="1">
            <polygon id="path" transform="translate(6.000000, 7.500000) rotate(180.000000) translate(-6.000000, -7.500000) " points="7 8 10 8 6 12 2 8 5 8 5 3 7 3"></polygon>
            <rect id="rectangle" x="0" y="0" width="12" height="2"></rect>
        </g>
        </g>
    </symbol>
    <symbol id="icon-download" viewBox="0 0 16 16">
        <g id="icon_download" stroke="none" stroke-width="1" fill="currentColor" fill-rule="evenodd">
        <g id="xiazai" transform="translate(2.000000, 2.000000)" fill="currentColor" fill-rule="nonzero" opacity="0.600880941">
            <path d="M10.2857378,11.1428571 L1.71424844,11.1428571 C0.767569825,11.1428571 0,10.3762249 0,9.43019549 L0,7.28926897 C0,7.05285765 0.192002313,6.86116873 0.428479725,6.86116873 L1.28576872,6.86116873 C1.52239718,6.86116873 1.71424844,7.05285767 1.71424844,7.28926897 L1.71424844,8.57385781 C1.71424844,9.04685878 2.09796471,9.43020922 2.57137267,9.43020922 L9.4286136,9.43020922 C9.90203529,9.43020922 10.2857378,9.0468588 10.2857378,8.57385781 L10.2857378,7.28926897 C10.2857378,7.05285765 10.4776028,6.86116873 10.7143686,6.86116873 L11.5715065,6.86116873 C11.808135,6.86116873 12,7.05285767 12,7.28926897 L12,9.43020922 C12,10.3762249 11.2325812,11.1428571 10.2857378,11.1428571 L10.2857378,11.1428571 Z M2.51599503,2.74240148 C2.68937793,2.56920512 2.97067374,2.56920512 3.14407038,2.74240148 L5.14301995,4.73953044 L5.14301995,0.428292316 C5.14301995,0.191880993 5.33491241,0 5.5715134,0 L6.42862389,0 C6.66529355,0 6.85728212,0.191880993 6.85728212,0.428292316 L6.85728212,4.73953044 L8.8562317,2.74240148 C9.02961459,2.56920512 9.31078682,2.56920512 9.48416973,2.74240148 L10.1123412,3.37005137 C10.2857241,3.54328889 10.2857241,3.82417566 10.1123412,3.99755037 L6.57267712,7.53400743 C6.55736693,7.54926242 6.28197549,7.71745152 6.00486768,7.71757507 C5.72473902,7.71771218 5.44292144,7.54944076 5.4275975,7.53400743 L1.88778239,3.99755037 C1.71438575,3.82416195 1.71438575,3.54328889 1.88778239,3.37005137 L2.51599503,2.74240148 L2.51599503,2.74240148 Z" id="shape"></path>
        </g>
        </g>
    </symbol>
    <symbol id="icon-menu" viewBox="0 0 16 16">
        <g id="ic_list" stroke="none" stroke-width="1" fill="none" fill-rule="evenodd">
        <g id="marshalling-2">
            <rect id="rectangle" x="0" y="0" width="16" height="16"></rect>
            <rect id="rectangle" fill="currentColor" opacity="0.600880941" x="1" y="2" width="14" height="2"></rect>
            <rect id="rectangle" fill="currentColor" opacity="0.600880941" x="1" y="7" width="14" height="2"></rect>
            <rect id="rectangle-2" fill="currentColor" opacity="0.600880941" x="1" y="12" width="14" height="2"></rect>
        </g>
        </g>
    </symbol>
    <symbol id="icon-statistics" viewBox="0 0 16 16">
        <g id="FlameGraph" stroke="none" stroke-width="1" fill="none" fill-rule="evenodd" opacity="1">
        <g id="FlameGraph(Color)" transform="translate(1.500254, 1.002598)" fill="#a2a2a2">
            <polygon id="path" points="1 7 4 7 4 13 1 13"></polygon>
            <polygon id="path" points="5 1 8 1 8 13 5 13"></polygon>
            <polygon id="path" points="9 4 12 4 12 13 9 13"></polygon>
        </g>
        </g>
    </symbol>
    <symbol id="icon-check" viewBox="0 0 24 24">
        <g id="finish" stroke="none" stroke-width="1" fill="none" fill-rule="evenodd" stroke-linecap="round">
            <line x1="5.63381755" y1="12.2502813" x2="9.88476712" y2="16.4845968" id="line-15" stroke="#ffffff" stroke-width="1.2"></line>
            <line x1="9.88446376" y1="16.492922" x2="18.3617396" y2="7.99963508" id="line-15-2" stroke="#ffffff" stroke-width="1.2"></line>
        </g>
    </symbol>
    <symbol id="icon-close" viewBox="0 0 24 24">
        <g id="close" stroke="none" stroke-width="1" fill="none" fill-rule="evenodd">
            <rect id="rectangle" fill="#000000" transform="translate(12.002785, 12.003027) rotate(-315.000000) translate(-12.002785, -12.003027) " x="4.50278502" y="11.4030272" width="15" height="1.2" rx="0.6"></rect>
            <rect id="rectangle" fill="#000000" transform="translate(12.001725, 12.001590) rotate(-315.000000) translate(-12.001725, -12.001590) " x="11.4017247" y="4.50158952" width="1.2" height="15" rx="0.6"></rect>
        </g>
    </symbol>
    <symbol id="icon-close-circle-fill" viewBox="0 0 16 16">
        <g id="close" stroke="none" stroke-width="1" fill="none" fill-rule="evenodd" opacity="1">
        <g id="closeHovered" transform="translate(2.000000, 2.000000)" fill="#bfbfbf">
            <path d="M6.25,12.5 C9.7018,12.5 12.5,9.7018 12.5,6.25 C12.5,2.79822 9.7018,0 6.25,0 C2.79822,0 0,2.79822 0,6.25 C0,9.7018 2.79822,12.5 6.25,12.5 Z M2.79,3.71 L3.70924,2.79076 L6.25,5.33152 L8.7908,2.79076 L9.71,3.71 L7.16924,6.25076 L9.7092,8.7908 L8.79,9.71 L6.25,7.17 L3.71,9.71 L2.79076,8.7908 L5.33076,6.25076 L2.79,3.71 Z" id="shape"></path>
        </g>
        </g>
    </symbol>
    <symbol id="icon-piechart-circle-fil" viewBox="0 0 16 16">
        <g id="Sceduling-Analysis" stroke="none" stroke-width="1" fill="currentColor" fill-rule="evenodd">
        <g id="huobifenxi" transform="translate(1.500000, 1.500000)" fill="currentColor" fill-rule="nonzero" opacity="0.600880941">
            <path d="M6,1 C2.68360864,1 0,3.68360864 0,7 C0,10.3163914 2.68360864,13 6,13 C9.31639136,13 12,10.3163914 12,7 L6,7 L6,1 Z" id="path"></path>
            <path d="M7,0 L7,6 L13,6 C13,2.68360864 10.3163914,0 7,0 Z" id="path"></path>
        </g>
        </g>
    </symbol>
    <symbol id="icon-file-fill" viewBox="0 0 16 16">
        <g id="annotate" stroke="none" stroke-width="1" fill="currentColor" fill-rule="evenodd" opacity="0.600880941">
        <g transform="translate(3.000000, 1.000000)" fill="currentColor" id="shape">
            <path d="M0,5 L5,5 L5,0 L10,0 L10,14 L0,14 L0,5 Z M4,0 L4,4 L0,4 L4,0 Z M2,7 L2,8 L8,8 L8,7 L2,7 Z M2,9 L2,10 L8,10 L8,9 L2,9 Z M2,11 L2,12 L8,12 L8,11 L2,11 Z"></path>
        </g>
    </g>
    </symbol>
    <symbol id="icon-star-fill" viewBox="0 0 16 16">
        <g id="rating" stroke="none" stroke-width="1" fill="none" fill-rule="evenodd">
        <rect id="rectangle" x="0" y="0" width="16" height="16"></rect>
        <g transform="translate(2.501125, 2.503198)" fill="currentColor" id="path">
            <polygon points="5.5 9.121 2.101 11 2.75 7.02 0 4.202 3.8 3.621 5.5 0 7.2 3.621 11 4.202 8.25 7.02 8.899 11"></polygon>
        </g>
        </g>
    </symbol>
    <symbol id="icon-caret-down" viewBox="0 0 16 16">
        <g id="arrowDown" stroke="none" stroke-width="1" fill="none" fill-rule="evenodd">
            <rect id="rectangle" x="0" y="0" width="16" height="16"></rect>
            <g transform="translate(3.500669, 5.501909)" fill="currentColor" id="path" opacity="0.800880941">
                <polygon transform="translate(4.500000, 2.500000) scale(-1, 1) rotate(-180.000000) translate(-4.500000, -2.500000) " points="4.5 0 9 5 0 5"></polygon>
            </g>
        </g>
    </symbol>
    <symbol id="icon-caret-right" viewBox="0 0 16 16">
        <g id="arrowright" stroke="none" stroke-width="1" fill="none" fill-rule="evenodd">
        <rect id="rectangle" x="0" y="0" width="16" height="16"></rect>
        <g id="arrowDown" transform="translate(5.500669, 3.501909)" fill="currentColor" opacity="0.800880941">
            <polygon id="path" transform="translate(2.500000, 4.500000) rotate(-270.000000) translate(-2.500000, -4.500000) " points="2.5 2 7 7 -2 7"></polygon>
        </g>
        </g>
    </symbol>
    <symbol id="icon-caret-left" viewBox="0 0 16 16">
        <g id="lif" stroke="none" stroke-width="1" fill="none" fill-rule="evenodd">
        <rect id="rectangle" x="0" y="0" width="16" height="16"></rect>
        <g id="arrowDown" transform="translate(8.000669, 8.001909) scale(-1, 1) translate(-8.000669, -8.001909) translate(5.500669, 3.501909)" fill="currentColor" opacity="0.800880941">
            <polygon id="path" transform="translate(2.500000, 4.500000) rotate(-270.000000) translate(-2.500000, -4.500000) " points="2.5 2 7 7 -2 7"></polygon>
        </g>
        </g>
    </symbol>
    <symbol id="icon-search" viewBox="0 0 24 24">
        <g id="seach" stroke="none" stroke-width="1" fill="none" fill-rule="evenodd">
            <circle id="oval" stroke="#afafaf" stroke-width="1.2" cx="10.7192096" cy="10.5553598" r="5"></circle>
            <line x1="15.4514426" y1="15.7875928" x2="18.9869765" y2="19.3231267" id="line-9" stroke="#afafaf" stroke-width="1.2" stroke-linecap="round"></line>
        </g>
    </symbol>
    <symbol id="icon-eye-close" viewBox="0 0 24 24">
        <g id="xianshi-yingcang" stroke="none" stroke-width="1" fill="none" fill-rule="evenodd">
        <rect id="rectangle" stroke="#979797" fill="#D8D8D8" opacity="0" x="0.5" y="0.5" width="23" height="23"></rect>
        <g id="yincang" transform="translate(5.000000, 6.000000)" fill="#000000" fill-rule="nonzero">
            <path d="M13.908682,5.86615654 L13.9070764,5.86460022 L13.9054709,5.8630439 C13.3210421,4.66934699 12.6210121,3.70442903 11.8069863,2.96828999 L10.9929605,3.7589002 C11.6945961,4.38454056 12.3015029,5.21717139 12.8249199,6.26301796 C11.4874772,8.94455612 9.59129482,10.2176253 6.99989916,10.2176253 C6.17623994,10.2176253 5.42162039,10.0884508 4.73282935,9.82698917 L3.85458063,10.6782958 C4.79384114,11.1171779 5.84067508,11.3381752 6.99989916,11.3381752 C10.0858115,11.3381752 12.3849928,9.77407431 13.9070764,6.66454834 C14.0307056,6.41242462 14.0307056,6.11983659 13.908682,5.86615654 L13.908682,5.86615654 Z M12.881115,0.696063809 L12.2003518,0.0361844238 C12.150579,-0.0120614746 12.0686948,-0.0120614746 12.018922,0.0361844238 L10.1436121,1.85240905 C9.20595718,1.41197069 8.15912324,1.19097335 6.99989916,1.19097335 C3.91398685,1.19097335 1.61480557,2.75507425 0.0927218709,5.86460022 L0.0927218709,5.86615654 C-0.0309072903,6.11828027 -0.0309072903,6.41398094 0.0927218709,6.66766098 C0.677150633,7.86135789 1.37718069,8.82627586 2.19120646,9.56397121 L0.574393927,11.1280721 C0.524621148,11.176318 0.524621148,11.2556903 0.574393927,11.3039362 L1.2551571,11.9638156 C1.30492988,12.0120615 1.38681413,12.0120615 1.43658691,11.9638156 L12.881115,0.870371571 C12.9308877,0.823681992 12.9308877,0.744309708 12.881115,0.696063809 Z M5.18399551,6.65987939 C5.15348961,6.5322612 5.13743387,6.39997406 5.13743387,6.26457428 C5.13743387,5.30121263 5.94182621,4.52149666 6.93567622,4.52149666 C7.07536112,4.52149666 7.21344044,4.53705985 7.34349189,4.56662992 L5.18399551,6.65987939 Z M8.14627865,3.78847027 C7.77860232,3.62038778 7.36918107,3.52545231 6.93567622,3.52545231 C5.37505876,3.52545231 4.10986682,4.75183192 4.10986682,6.26457428 C4.10986682,6.68478049 4.20780681,7.08164192 4.38120875,7.43803904 L3.00683781,8.77024836 C2.30520218,8.144608 1.69829539,7.31197717 1.17487842,6.2661306 C2.51392674,3.58459244 4.41010907,2.31152325 6.99989916,2.31152325 C7.82355838,2.31152325 8.57817793,2.44069775 9.26696897,2.70215939 L8.14627865,3.78847027 L8.14627865,3.78847027 Z" id="shape"></path>
            <path d="M7.13704758,7.96055307 C7.03294022,7.96055307 6.93045954,7.95241968 6.83123221,7.93452623 L6,8.76575844 C6.34810899,8.91703945 6.73363156,9 7.13704758,9 C8.71817812,9 10,7.71817812 10,6.13704758 C10,5.73363156 9.91703945,5.34810899 9.76575844,5 L8.93452623,5.83123221 C8.95079301,5.93045954 8.96055307,6.03294022 8.96055307,6.13704758 C8.95892639,7.14558764 8.14396096,7.96055307 7.13704758,7.96055307 Z" id="path"></path>
        </g>
        </g>
    </symbol>
    <symbol id="icon-eye" viewBox="0 0 24 24">
        <g id="xianshi" stroke="none" stroke-width="1" fill="none" fill-rule="evenodd">
            <rect id="rectangle" stroke="#979797" fill="#D8D8D8" opacity="0" x="0.5" y="0.5" width="23" height="23"></rect>
            <g id="display" transform="translate(5.000000, 7.000000)" fill="#000000" fill-rule="nonzero">
                <path d="M8.60171526,4.990507 C8.60912062,5.72013831 8.08420287,6.35346887 7.3474015,6.50387787 C6.61060012,6.65428688 5.86663627,6.27998301 5.56966755,5.60946252 C5.27269883,4.93894203 5.50523837,4.15850984 6.12533087,3.74458591 C6.74542338,3.33066197 7.5807754,3.39825556 8.12144082,3.90610371 C8.42461177,4.19087281 8.59756281,4.58137594 8.60171526,4.990507 L8.60171526,4.990507 Z M6.99759862,2.38886991 C5.91172503,2.38886991 4.93277354,3.02273844 4.5172277,3.9949036 C4.10168187,4.96706876 4.33137633,6.08607926 5.09920491,6.83014225 C5.8670335,7.57420525 7.02178551,7.79679027 8.0250019,7.39410628 C9.02821829,6.99142228 9.68233276,6.04277099 9.68233276,4.990507 C9.68233276,3.55366251 8.48033634,2.38886991 6.99759862,2.38886991 Z M12.8473413,5.00446928 C12.6220039,5.68253459 12.2846304,6.32067929 11.8483705,6.89403039 C11.3697607,7.47909677 10.7648891,7.95564134 10.0761578,8.29025782 C9.11572825,8.73414654 8.06143803,8.95409791 6.99759862,8.93252243 C5.93497501,8.95209098 4.88235633,8.7305514 3.9238422,8.28560373 C3.23511095,7.95098724 2.63023934,7.47444268 2.1516295,6.8893763 C1.71028221,6.30648642 1.3711417,5.65706162 1.14785591,4.96723655 C1.37267165,4.27945319 1.71171106,3.63179398 2.1516295,3.04975088 C2.63400936,2.48766197 3.23502358,2.03220641 3.91423671,1.71402665 C4.87629616,1.26991973 5.93219525,1.04997584 6.99759862,1.07176204 C8.06482146,1.04715215 9.12294757,1.26721715 10.0857633,1.71402665 C10.7727608,2.04920965 11.3759462,2.52571705 11.8531732,3.11025408 C12.2875509,3.68572665 12.6232552,4.32535295 12.8473413,5.00446928 L12.8473413,5.00446928 Z M14,5.00446928 C13.9223899,4.68529944 13.8146757,4.37371646 13.6782161,4.073651 C13.4357111,3.49099018 13.1125675,2.94299217 12.7176672,2.444719 C12.1369087,1.73555849 11.4023605,1.15879958 10.5660377,0.755283816 C9.45365353,0.237327106 8.23152074,-0.0208929806 6.99759862,0.00132101492 C5.76325754,-0.0197896481 4.54102408,0.240045793 3.42915952,0.75993791 C2.5961913,1.16234435 1.8636178,1.73566333 1.28233276,2.44006491 C0.887974548,2.93868736 0.564874653,3.48661133 0.32178388,4.06899691 C0.184939812,4.36891808 0.0772134744,4.68053607 0,4.99981519 C0.0775315988,5.31900668 0.185248216,5.63059654 0.32178388,5.93063347 C0.564874653,6.51301904 0.887974548,7.06094301 1.28233276,7.55956547 C1.86135326,8.26428576 2.5924501,8.83773196 3.42435677,9.23969247 C4.53826111,9.75865399 5.76181857,10.0184213 6.99759862,9.99830937 C8.23075484,10.023425 9.45285025,9.7684006 10.5660377,9.25365474 C11.3974402,8.85093482 12.1283798,8.2776119 12.7080617,7.57352774 C13.1033395,7.0738131 13.4264959,6.52422746 13.6686106,5.93994166 C13.8050702,5.63987619 13.9127844,5.32829322 13.9903945,5.00912338 L14,5.00446928 Z" id="shape"></path>
            </g>
        </g>
    </symbol>
    <symbol id="icon-checkmark" viewBox="0 0 24 24">
        <g id="finish" stroke="none" stroke-width="1" fill="none" fill-rule="evenodd" stroke-linecap="round">
        <line x1="5.63381755" y1="12.2502813" x2="9.88476712" y2="16.4845968" id="line-15" stroke="#3391FF" stroke-width="1.2"></line>
        <line x1="9.88446376" y1="16.492922" x2="18.3617396" y2="7.99963508" id="line-15-2" stroke="#3391FF" stroke-width="1.2"></line>
        </g>
    </symbol>
    <symbol id="icon-properties" viewBox="0 0 24 24">
        <g id="record-setting" stroke="none" stroke-width="1" fill="none" fill-rule="evenodd" opacity="0.897004627">
        <g id="properties" transform="translate(4.000000, 4.000000)" fill="currentColor">
            <path d="M9.14285714,11.4285714 C9.98885993,11.4285714 10.727513,11.8881898 11.1227357,12.5713457 L16,12.5714286 L16,14.8571429 L11.1220707,14.8583743 C10.7266849,15.5408967 9.98838571,16 9.14285714,16 C8.29732857,16 7.55902933,15.5408967 7.16364359,14.8583743 L0,14.8571429 L0,12.5714286 L7.16297865,12.5713457 C7.55820121,11.8881898 8.29685435,11.4285714 9.14285714,11.4285714 Z M9.14285714,12.5714286 C8.51167457,12.5714286 8,13.0831032 8,13.7142857 C8,14.3454682 8.51167457,14.8571429 9.14285714,14.8571429 C9.77403971,14.8571429 10.2857143,14.3454682 10.2857143,13.7142857 C10.2857143,13.0831032 9.77403971,12.5714286 9.14285714,12.5714286 Z M5.71428571,5.71428571 C6.5602885,5.71428571 7.29894165,6.17390414 7.69416421,6.85706002 L16,6.85714286 L16,9.14285714 L7.69349927,9.14408857 C7.29811353,9.82661098 6.55981429,10.2857143 5.71428571,10.2857143 C4.86875714,10.2857143 4.1304579,9.82661098 3.73507216,9.14408857 L0,9.14285714 L0,6.85714286 L3.73440722,6.85706002 C4.12962978,6.17390414 4.86828293,5.71428571 5.71428571,5.71428571 Z M5.71428571,6.85714286 C5.08310314,6.85714286 4.57142857,7.36881743 4.57142857,8 C4.57142857,8.63118257 5.08310314,9.14285714 5.71428571,9.14285714 C6.34546829,9.14285714 6.85714286,8.63118257 6.85714286,8 C6.85714286,7.36881743 6.34546829,6.85714286 5.71428571,6.85714286 Z M11.4285714,0 C12.2745742,0 13.0132273,0.459618423 13.4084499,1.14277431 L16,1.14285714 L16,3.42857143 L13.407785,3.42980286 C13.0123992,4.11232527 12.2741,4.57142857 11.4285714,4.57142857 C10.5830429,4.57142857 9.84474361,4.11232527 9.44935787,3.42980286 L0,3.42857143 L0,1.14285714 L9.44869294,1.14277431 C9.8439155,0.459618423 10.5825687,0 11.4285714,0 Z M11.4285714,1.14285714 C10.7973889,1.14285714 10.2857143,1.65453171 10.2857143,2.28571429 C10.2857143,2.91689686 10.7973889,3.42857143 11.4285714,3.42857143 C12.0597539,3.42857143 12.5714286,2.91689686 12.5714286,2.28571429 C12.5714286,1.65453171 12.0597539,1.14285714 11.4285714,1.14285714 Z" id="shape"></path>
        </g>
        </g>
    </symbol>
    <symbol id="icon-externaltools" viewBox="0 0 24 24">
        <g id="allocations" stroke="none" stroke-width="1" fill="none" fill-rule="evenodd" opacity="0.897004627">
        <g id="externalTools" transform="translate(3.000000, 4.000000)" fill="currentColor">
            <path d="M5.86917641,7.97161609 L4.31438492,6.41682459 L2.13286341,8.5983461 L1.07320761e-15,6.46548269 L2.44458939,4.0208933 C2.46851072,3.98251543 2.49714562,3.94623832 2.53049409,3.91288984 C2.53098098,3.91240294 2.53146872,3.91191688 2.53195727,3.91143166 L5.7308632,0.734326463 L5.73653371,0.736994902 L9.32786132,0.724923307 L9.31798661,1.55908015 L8.12087701,2.12640094 L6.1829803,4.01334826 L8.00521227,5.83558022 L5.86917641,7.97161609 Z M9.93350156,12.0359412 L12.0695374,9.89990536 L15.3216475,13.1520153 L13.1856116,15.2880512 L9.93350156,12.0359412 Z" id="shape"></path>
            <path d="M8.42850721,-0.0757476204 L8.42850721,3.04046185 L10.953042,3.04046185 L10.953042,-0.0757476204 C12.1866265,0.423595197 13.0568206,1.63298637 13.0568206,3.0456223 C13.0568206,4.3975092 12.2598608,5.56325616 11.1101328,6.0986716 L11.1101328,16.6941993 L8.08932197,16.6941993 L8.08932197,6.00703571 C7.03839544,5.43752313 6.32472777,4.32491572 6.32472777,3.0456223 C6.32472777,1.63298604 7.19492236,0.423594634 8.42850721,-0.0757476204 Z" id="path" transform="translate(9.690774, 8.309226) rotate(45.000000) translate(-9.690774, -8.309226) "></path>
        </g>
        </g>
    </symbol>
    <symbol id="icon-realIntentionBulb" viewBox="0 0 24 24">
        <g id="probes-config" stroke="none" stroke-width="1" fill="none" fill-rule="evenodd" opacity="0.897004627">
        <g id="realIntentionBulb" transform="translate(3.000000, 5.000000)" fill="currentColor">
            <path d="M15.162651,5.94299946 L12.0570245,2.83737295 L4.49999999,10.3520884 L4.49999999,13.4577149 L7.6056265,13.4577149 L15.162651,5.94299946 Z M17.7506731,3.35497736 C18.083109,3.02250956 18.083109,2.13463191 17.7506731,1.80216411 L16.1978598,0.249350849 C15.8654241,-0.0831169497 14.9774824,-0.0831169497 14.6450466,0.249350849 L13.0922333,1.80216411 L16.1978598,4.90779062 L17.7506731,3.35497736 Z M8.79594153,2.99999999 L7.29594153,4.49999999 L0,4.49999999 L0,2.99999999 L8.79594153,2.99999999 Z M11.7959415,0 L10.2959415,1.5 L0,1.5 L0,0 L11.7959415,0 L11.7959415,0 Z M5.79594153,5.99999999 L4.29594154,7.49999999 L0,7.49999999 L0,5.99999999 L5.79594153,5.99999999 Z" id="shape"></path>
        </g>
        </g>
    </symbol>
    <symbol id="icon-dbsetbreakpoint" viewBox="0 0 24 24">
        <g id="trace-command" stroke="none" stroke-width="1" fill="none" fill-rule="evenodd">
        <g id="db_set_breakpoint" transform="translate(4.000000, 4.000000)" fill="#DB5860" fill-rule="nonzero">
            <circle id="db_set_breakpoint-a" cx="8" cy="8" r="8"></circle>
        </g>
        </g>
    </symbol>
    <symbol id="icon-copyhovered" viewBox="0 0 16 16">
        <g id="copyHovered" stroke="none" stroke-width="1" fill="none" fill-rule="evenodd" opacity="0.600880941">
        <g transform="translate(2.000927, 1.503628)" fill="currentColor">
            <polygon id="path" points="9 2 2 2 2 10 0 10 0 0 9 0"></polygon>
            <path d="M3,3 L12,3 L12,13 L3,13 L3,3 Z M5,5 L5,6 L10,6 L10,5 L5,5 Z M5,9 L5,10 L10,10 L10,9 L5,9 Z M5,7 L5,8 L10,8 L10,7 L5,7 Z" id="shape"></path>
        </g>
    </g>
    </symbol>
    <symbol id="icon-setting" viewBox="0 0 16 16">
        <g id="setting" stroke="none" stroke-width="1" fill="none" fill-rule="evenodd" opacity="0.700880941">
            <path d="M13.2375126,9.6973403 L11.9867526,8.7999803 C12.0379126,8.5425803 12.0647126,8.2764203 12.0647126,8.0039903 C12.0647126,7.7315603 12.0379126,7.4654003 11.9867526,7.2079903 L13.2375126,6.3106403 C12.9968126,5.5660603 12.6016126,4.8909403 12.0898126,4.3230503 L10.6873226,4.9557303 C10.2881826,4.6040003 9.81943258,4.3294403 9.30437258,4.1553603 L9.15156258,2.6240983 C8.78114258,2.5454113 8.39695258,2.5040103 8.00308258,2.5040103 C7.60949258,2.5040103 7.22556258,2.5453533 6.85538258,2.6239333 L6.70257258,4.1551703 C6.18737258,4.3292003 5.71848258,4.6037803 5.31923258,4.9555603 L3.91661258,4.3228103 C3.40477258,4.8906403 3.00959258,5.5656903 2.76882758,6.3101903 L4.01968258,7.2076403 C3.96849258,7.4651503 3.94164258,7.7314403 3.94164258,8.0039903 C3.94164258,8.2765403 3.96849258,8.5428203 4.01968258,8.8003303 L2.76882758,9.6977803 C3.00957258,10.4422903 3.40474258,11.1173403 3.91658258,11.6851703 L5.31922258,11.0524103 C5.71846258,11.4042003 6.18736258,11.6787903 6.70257258,11.8528203 L6.85539258,13.3841103 C7.22556258,13.4627103 7.60949258,13.5040103 8.00308258,13.5040103 C8.39695258,13.5040103 8.78114258,13.4626103 9.15155258,13.3839103 L9.30437258,11.8526303 C9.81943258,11.6785503 10.2882026,11.4039803 10.6873326,11.0522403 L12.0898126,11.6849303 C12.6016126,11.1170403 12.9968126,10.4419203 13.2375126,9.6973403 Z M9.94926258,8.0042103 C9.94926258,9.0791303 9.07794258,9.9505303 8.00311258,9.9505303 C6.92828258,9.9505303 6.05696258,9.0791303 6.05696258,8.0042103 C6.05696258,6.9292803 6.92828258,6.0578803 8.00311258,6.0578803 C9.07794258,6.0578803 9.94926258,6.9292803 9.94926258,8.0042103 Z" id="shape" fill="currentColor"></path>
        </g>
    </symbol>
    <symbol id="icon-info" viewBox="0 0 16 16">
        <g id="icon_Infor-and-stats" stroke="none" stroke-width="1" fill="currentColor" fill-rule="evenodd">
        <g id="notificationInfo" transform="translate(2.000000, 2.000000)" fill="currentColor" opacity="0.600880941">
            <path d="M6,12 C2.6862915,12 0,9.3137085 0,6 C0,2.6862915 2.6862915,0 6,0 C9.3137085,0 12,2.6862915 12,6 C12,9.3137085 9.3137085,12 6,12 Z M5.1,4.8 L5.1,9.6 L6.9,9.6 L6.9,4.8 L5.1,4.8 Z M5.1,1.8 L5.1,3.6 L6.9,3.6 L6.9,1.8 L5.1,1.8 Z" id="shape"></path>
        </g>
        </g>
    </symbol>
    <symbol id="icon-metric" viewBox="0 0 16 16">
        <g id="icon_Mertrics" stroke="none" stroke-width="1" fill="currentColor" fill-rule="evenodd">
        <g id="overhead" transform="translate(1.000000, 4.000000)" fill="currentColor" opacity="0.600880941">
            <path d="M7,0 C8.90731937,0 10.6364716,0.76282442 11.8990111,2.00002783 L11.7765125,2.16971743 C11.7862414,2.19358449 11.7921839,2.21930652 11.7935956,2.24624269 C11.7964348,2.30041853 11.7809964,2.35061365 11.7522351,2.39286445 L11.7522351,2.39286445 L8.19025845,8.43406481 C7.94100442,8.87431691 7.46815929,9.18553663 6.90826534,9.21487943 C6.05490973,9.2596019 5.32907872,8.63463356 5.28629661,7.81830225 C5.26132424,7.34180108 5.47473271,6.90713158 5.82614102,6.61832652 L5.82614102,6.61832652 L10.1229839,3.09502782 C9.26729544,2.40980486 8.18150526,2 7,2 C4.23857625,2 2,4.23857625 2,7 C2,7.7111047 2.1484475,8.3875377 2.41604369,9 L0.28987868,9 C0.10127754,8.3662906 0,7.6949726 0,7 C0,3.13400675 3.13400675,0 7,0 Z M12.8444532,3.14601556 C13.5748061,4.25134446 14,5.57601755 14,7 C14,7.6949726 13.8987225,8.3662906 13.7101213,9 L11.5839563,9 C11.8515525,8.3875377 12,7.7111047 12,7 C12,6.39524737 11.8926353,5.81557109 11.6959272,5.27899233 L12.8444532,3.14601556 Z" id="shapecombine"></path>
        </g>
        </g>
    </symbol>
    <symbol id="icon-add" viewBox="0 0 16 16">
        <g id="add" stroke="none" stroke-width="1" fill="none" fill-rule="evenodd">
        <rect id="rectangle" fill="#8c969c" fill-rule="nonzero" opacity="0" x="0" y="0" width="16" height="16"></rect>
            <g id="cancel" transform="translate(0.843146, 0.843146)"></g>
            <path d="M9,2 L9,7 L14,7 L14,9 L9,9 L9,14 L7,14 L7,9 L2,9 L2,7 L7,7 L7,2 L9,2 Z" id="shapecombine" fill="#8c969c" opacity="1"></path>
        </g>
    </symbol>
    <symbol id="icon-convert-loading" viewBox="0 0 16 16">
        <g id="londing" stroke="none" stroke-width="1" fill="none" fill-rule="evenodd">
        <g id="icloading" transform="translate(2.000000, 2.000000)" fill="currentColor" fill-rule="nonzero" opacity="0.600880941">
            <path d="M0,6 C0,2.7 2.7,0 6,0 C9.3,0 12,2.7 12,6 C12,6.6 11.6,7 11,7 C10.4,7 10,6.6 10,6 C10,3.8 8.2,2 6,2 C3.8,2 2,3.8 2,6 C2,8.2 3.8,10 6,10 C6.6,10 7,10.4 7,11 C7,11.6 6.6,12 6,12 C2.7,12 0,9.3 0,6 Z" id="path"></path>
        </g>
        </g>
    </symbol>
    <symbol id="icon-file-config" viewBox="0 0 24 24">
        <g id="ebpf-config" stroke="none" stroke-width="1" fill="none" fill-rule="evenodd" opacity="0.897004627">
        <g id="configFile_dark" transform="translate(4.000000, 2.000000)" fill="currentColor">
            <polygon id="path" points="6 0 0 6 6 6"></polygon>
            <path d="M5.96170322,18 L0,18 L0,7.5 L7.77777778,7.5 L7.77777778,0 L14,0 L14,7.5 L14,8.54280607 C13.3608596,8.3524776 12.6817294,8.25 11.9777778,8.25 C8.19769549,8.25 5.13333333,11.2049207 5.13333333,14.85 C5.13333333,15.9907312 5.43345185,17.0638695 5.96170322,18 Z" id="path"></path>
            <path d="M15.8052063,15.7237895 L17,16.5396124 C16.7700551,17.216468 16.3925813,17.8301821 15.9036563,18.34642 L14.5638941,17.7712194 C14.182576,18.090998 13.7347346,18.3406124 13.2426636,18.4988458 L13.0966869,19.8909044 C12.7429723,19.9623894 12.3761013,20 12,20 C11.6238987,20 11.2570277,19.9623894 10.9033131,19.8909044 L10.7573364,18.4988456 C10.2652654,18.3406123 9.81742408,18.0909979 9.43610605,17.7712192 L8.09634355,18.34642 C7.60741861,17.8301821 7.22994488,17.216468 7,16.5396124 L8.19479392,15.7237894 C8.14591504,15.489738 8.12028234,15.247718 8.12028234,15 C8.12028234,14.7522823 8.14591507,14.510262 8.194794,14.2762107 L7,13.4603876 C7.22994488,12.783532 7.60741861,12.1698179 8.09634355,11.6535801 L9.43610634,12.2287808 C9.8174243,11.9090024 10.2652655,11.6593881 10.7573363,11.5011547 L10.9033131,10.1090955 C11.2570277,10.0376107 11.6238987,10 12,10 C12.3761013,10 12.7429723,10.0376107 13.0966869,10.1090955 L13.2426636,11.5011546 C13.7347345,11.6593879 14.1825758,11.9090022 14.5638938,12.2287807 L15.9036563,11.6535801 C16.3925813,12.1698179 16.7700551,12.783532 17,13.4603876 L15.8052063,14.2762105 C15.8540852,14.5102619 15.8797179,14.7522822 15.8797179,15 C15.8797179,15.247718 15.8540852,15.4897382 15.8052063,15.7237895 Z M11.9999998,16.7695352 C13.0267144,16.7695352 13.8590311,15.9773553 13.8590311,15.0001521 C13.8590311,14.0229488 13.0267144,13.2307691 11.9999998,13.2307691 C10.9732851,13.2307691 10.1409684,14.0229488 10.1409684,15.0001521 C10.1409684,15.9773553 10.9732851,16.7695352 11.9999998,16.7695352 Z" id="shape"></path>
        </g>
        </g>
    </symbol>
    <symbol id="icon-smart-help" viewBox="0 0 16 16">
        <g id="icon_help-documents" stroke="none" stroke-width="1" fill="none" fill-rule="evenodd">
        <g id="icon_help" transform="translate(2.000000, 2.000000)" fill="currentColor" fill-rule="nonzero" opacity="0.600880941">
            <path d="M7.22057143,6.39085714 C6.79457143,6.66942857 6.64285714,7.21285714 6.64285714,7.5 L6.64285714,7.71428571 C6.64285714,8.06914286 6.35485714,8.35714286 6,8.35714286 C5.64514286,8.35714286 5.35714286,8.06914286 5.35714286,7.71428571 L5.35714286,7.49614286 C5.35885714,6.846 5.74328571,6.15 6.22542857,5.77371429 C6.96471429,5.19728571 7.28571429,4.99542857 7.28571429,4.28571429 C7.28571429,3.576 6.70971429,3 6,3 C5.292,3 4.71642857,3.57385714 4.71428571,4.28571429 L4.71428571,4.5 C4.71428571,4.85485714 4.42628571,5.14285714 4.07142857,5.14285714 C3.71657143,5.14285714 3.42857143,4.85485714 3.42857143,4.5 L3.42857143,4.28571429 C3.42857143,2.86628571 4.581,1.71428571 6,1.71428571 C7.41942857,1.71428571 8.57142857,2.86628571 8.57142857,4.28571429 C8.57142857,5.12357143 8.31085714,5.67728571 7.22057143,6.39085714 M6,10.2857143 C5.64514286,10.2857143 5.35714286,9.99771429 5.35714286,9.64285714 C5.35714286,9.288 5.64514286,9 6,9 C6.35485714,9 6.64285714,9.288 6.64285714,9.64285714 C6.64285714,9.99771429 6.35485714,10.2857143 6,10.2857143 M6,0 C2.68842857,0 0,2.68842857 0,6 C0,9.31157143 2.68842857,12 6,12 C9.31157143,12 12,9.31157143 12,6 C12,2.68842857 9.31157143,0 6,0" id="shape"></path>
        </g>
    </g>
    </symbol>
    <symbol id="icon-vm-tracker" viewBox="0 0 24 24">
        <g id="VM-Tracker" stroke="none" stroke-width="1" fill="none" fill-rule="evenodd" opacity="0.897004627">
        <g id="profileMemory_dark" transform="translate(1.002711, 2.502880)" fill="currentColor">
            <polygon id="path" points="12 7.22222222 9.33333333 7.22222222 9.33333333 13 4 13 4 0 12 0"></polygon>
            <rect id="rectangle" x="0" y="3" width="5" height="1"></rect>
            <rect id="rectangle" x="0" y="5" width="5" height="1"></rect>
            <rect id="rectangle" x="0" y="8" width="5" height="1"></rect>
            <rect id="rectangle" x="12" y="3" width="5" height="1"></rect>
            <rect id="rectangle" x="12" y="5" width="5" height="1"></rect>
            <path d="M19.25,19 L19.25,16.25 L13.75,16.25 L13.75,19 L11,19 L11,8 L22,8 L22,19 L19.25,19 Z M13.0625,10.0625 L13.0625,13.5 L19.9375,13.5 L19.9375,10.0625 L13.0625,10.0625 Z M15.125,17.625 L17.875,17.625 L17.875,19 L15.125,19 L15.125,17.625 Z" id="shape"></path>
        </g>
        </g>
    </symbol>
    <symbol id="icon-bg-colors" viewBox="0 0 1024 1024">
        <path d="M766.4 744.3c43.7 0 79.4-36.2 79.4-80.5 0-53.5-79.4-140.8-79.4-140.8S687 610.3 687 663.8c0 44.3 35.7 80.5 79.4 80.5zM389.3 700.2c7.1 7.1 18.6 7.1 25.6 0l256.1-256c7.1-7.1 7.1-18.6 0-25.6l-256-256c-0.6-0.6-1.3-1.2-2-1.7l-78.2-78.2c-3.5-3.5-9.3-3.5-12.8 0l-48 48c-3.5 3.5-3.5 9.3 0 12.8l67.2 67.2-207.8 207.9c-7.1 7.1-7.1 18.6 0 25.6l255.9 256z m12.9-448.6l178.9 178.9H223.4l178.8-178.9zM904 816H120c-4.4 0-8 3.6-8 8v80c0 4.4 3.6 8 8 8h784c4.4 0 8-3.6 8-8v-80c0-4.4-3.6-8-8-8z" fill="currentColor"></path>
    </symbol>
    <symbol id="icon-copy-csv" viewBox="0 0 16 16">
        <g stroke="none" stroke-width="1" fill="none" fill-rule="evenodd">
            <rect fill="#000000" fill-rule="nonzero" opacity="0" x="0" y="0" width="16" height="16"></rect>
            <g id="fuzhi-copy" transform="translate(2.000000, 1.000000)" fill="#595959" fill-rule="nonzero">
                <path d="M10.7706667,10.15 L9,10.15 L9,8.29079999 C9,7.96451017 8.74808555,7.7 8.43733334,7.7 C8.12658112,7.7 7.87466667,7.96451017 7.87466667,8.29079999 L7.87466667,10.15 L6.22933333,10.15 C5.91858111,10.15 5.66666666,10.4145102 5.66666666,10.7408 C5.66666666,11.0670898 5.91858111,11.3316 6.22933333,11.3316 L7.87533333,11.3316 L7.87533333,13.0592 C7.87533333,13.3852965 8.12709854,13.64965 8.43766666,13.64965 C8.74823479,13.64965 9,13.3852965 9,13.0592 L9,11.3316 L10.7706667,11.3316 C11.0814189,11.3316 11.3333333,11.0670898 11.3333333,10.7408 C11.3333333,10.4145102 11.0814189,10.15 10.7706667,10.15 L10.7706667,10.15 Z M11.6733333,4.95110001 L7.33,0.350000011 C7.2604679,0.277389783 7.18278699,0.213924247 7.09866667,0.161000011 C7.07626509,0.147663265 7.05335736,0.135286414 7.03,0.1239 C7.01533333,0.1155 7,0.1092 6.986,0.1029 C6.84287356,0.0358866058 6.68804266,0.000845332076 6.53133333,0 L1.12466667,0 C0.504,0 0,0.528500011 0,1.18160001 L0,12.8191 C0,13.4708 0.503333328,14 1.12533333,14 L4.43733333,14 C4.74808555,14 5,13.7354898 5,13.4092 C5,13.0829102 4.74808555,12.8184 4.43733333,12.8184 L1.12466667,12.8184 L1.12466667,1.18160001 L6,1.18160001 L6,5.1198 C6,5.77219999 6.50333333,6.3007 7.12533333,6.3007 L10.8746667,6.3007 L10.8746667,8.85989999 C10.8746667,9.18618982 11.1265811,9.45069999 11.4373333,9.45069999 C11.7480856,9.45069999 12,9.18618982 12,8.85989999 L12,5.7841 C12,5.47190001 11.8826667,5.17370001 11.6733333,4.9518 L11.6733333,4.95110001 Z M7.12466667,5.11910001 L7.12466667,1.8109 L10.2466667,5.11910001 L7.12466667,5.11910001 L7.12466667,5.11910001 Z"></path>
            </g>
        </g>
    </symbol>
    <symbol id="icon-import-so" viewBox="0 0 16 16">
        <g stroke="none" stroke-width="1" fill="none" fill-rule="evenodd">
            <rect fill="#000000" fill-rule="nonzero" opacity="0" x="0" y="0" width="16" height="16"></rect>
            <g transform="translate(2.000000, 2.000000)" fill="#666666" fill-rule="nonzero" stroke="#666666" stroke-width="0.7">
                <path d="M6.6,4.19684234 L6.6,9.59278249 L8.44199999,9.59278249 C8.51606409,9.59296034 8.5874445,9.62050869 8.6424,9.6701243 L8.6802,9.71089362 C8.78040389,9.84240227 8.75517396,10.0301434 8.62379999,10.1305779 L6.2934,11.9076408 C6.18567739,11.9898862 6.00327739,11.9896863 5.7462,11.9070413 L3.4332,10.1299783 C3.33161668,10.0517315 3.29105161,9.91760892 3.33226148,9.79623955 C3.37347136,9.67487019 3.48733915,9.59310507 3.61560001,9.59278249 L5.4,9.59278249 L5.4,4.19684234 L6.6,4.19684234 Z M8.70169678,8 L8.70169678,6.85714285 L10.8,6.85714285 L10.8,1.14285715 L1.20000001,1.14285715 L1.20000001,6.85714285 L3.29999998,6.85714285 L3.29999998,7.996 L1.20000001,8 C0.987826814,8 0.587826811,7.99866667 0,7.996 L0,0 L10.8,0 C11.0121732,0 11.4121732,0 12,0 L12,6.85714285 C12,7.05921256 12,7.44016494 12,8 C11.4121732,8 11.0121732,8 10.8,8 L9.27461466,8 L8.70169678,8 Z"></path>
            </g>
        </g>
    </symbol>
    <symbol id="icon-arrowleft" viewBox="0 0 20 20">
        <g id="fanhui" stroke="none" stroke-width="1" fill="none" fill-rule="evenodd">
        <g fill="#FFFFFF">
            <rect id="rectangle" stroke="#FFFFFF" opacity="0" x="0.5" y="0.5" width="19" height="19"></rect>
            <g id="path" transform="translate(10.109375, 10.000000) scale(-1, 1) translate(-10.109375, -10.000000) translate(6.250000, 3.750000)">
                <polygon points="0 1.46875 4.78125 6.25 0 11.03125 1.46875 12.5 7.71875 6.25 1.46875 0"></polygon>
            </g>
        </g>
    </g>
    </symbol>
</svg>
