<?xml version="1.0" encoding="UTF-8"?>
<svg width="489px" height="303px" viewBox="0 0 489 303" version="1.1" xmlns="http://www.w3.org/2000/svg" xmlns:xlink="http://www.w3.org/1999/xlink">
    <title>table_no_data</title>
    <defs>
        <linearGradient x1="50%" y1="100%" x2="50%" y2="0%" id="linearGradient-1">
            <stop stop-color="#FFF9EF" stop-opacity="0" offset="0%"></stop>
            <stop stop-color="#FEF8EF" stop-opacity="0.02" offset="17%"></stop>
            <stop stop-color="#FBF5EE" stop-opacity="0.06" offset="32%"></stop>
            <stop stop-color="#F5F1EC" stop-opacity="0.14" offset="46%"></stop>
            <stop stop-color="#EDEBEA" stop-opacity="0.26" offset="60%"></stop>
            <stop stop-color="#E3E2E7" stop-opacity="0.4" offset="74%"></stop>
            <stop stop-color="#D6D8E4" stop-opacity="0.58" offset="87%"></stop>
            <stop stop-color="#C8CDE0" stop-opacity="0.79" offset="99%"></stop>
            <stop stop-color="#C7CCE0" stop-opacity="0.8" offset="100%"></stop>
        </linearGradient>
        <linearGradient x1="50%" y1="100%" x2="50%" y2="0%" id="linearGradient-2">
            <stop stop-color="#D8D8D8" stop-opacity="0" offset="0%"></stop>
            <stop stop-color="#D8D8D8" stop-opacity="0.02" offset="17%"></stop>
            <stop stop-color="#D8D8D8" stop-opacity="0.06" offset="32%"></stop>
            <stop stop-color="#D8D8D8" stop-opacity="0.14" offset="46%"></stop>
            <stop stop-color="#D8D8D8" stop-opacity="0.26" offset="60%"></stop>
            <stop stop-color="#D8D8D8" stop-opacity="0.4" offset="74%"></stop>
            <stop stop-color="#D8D8D8" stop-opacity="0.58" offset="87%"></stop>
            <stop stop-color="#D8D8D8" stop-opacity="0.79" offset="99%"></stop>
            <stop stop-color="#D8D8D8" stop-opacity="0.8" offset="100%"></stop>
        </linearGradient>
        <linearGradient x1="42.1908%" y1="77.89%" x2="57.8092%" y2="22.11%" id="linearGradient-3">
            <stop stop-color="#FFF9EF" stop-opacity="0" offset="0%"></stop>
            <stop stop-color="#FEF8EF" stop-opacity="0.02" offset="17%"></stop>
            <stop stop-color="#FBF5EE" stop-opacity="0.06" offset="32%"></stop>
            <stop stop-color="#F5F1EC" stop-opacity="0.14" offset="46%"></stop>
            <stop stop-color="#EDEBEA" stop-opacity="0.26" offset="60%"></stop>
            <stop stop-color="#E3E2E7" stop-opacity="0.4" offset="74%"></stop>
            <stop stop-color="#D6D8E4" stop-opacity="0.58" offset="87%"></stop>
            <stop stop-color="#C8CDE0" stop-opacity="0.79" offset="99%"></stop>
            <stop stop-color="#C7CCE0" stop-opacity="0.8" offset="100%"></stop>
        </linearGradient>
        <linearGradient x1="42.1908%" y1="77.89%" x2="57.8092%" y2="22.11%" id="linearGradient-4">
            <stop stop-color="#D8D8D8" stop-opacity="0" offset="0%"></stop>
            <stop stop-color="#D8D8D8" stop-opacity="0.02" offset="17%"></stop>
            <stop stop-color="#D8D8D8" stop-opacity="0.06" offset="32%"></stop>
            <stop stop-color="#D8D8D8" stop-opacity="0.14" offset="46%"></stop>
            <stop stop-color="#D8D8D8" stop-opacity="0.26" offset="60%"></stop>
            <stop stop-color="#D8D8D8" stop-opacity="0.4" offset="74%"></stop>
            <stop stop-color="#D8D8D8" stop-opacity="0.58" offset="87%"></stop>
            <stop stop-color="#D8D8D8" stop-opacity="0.79" offset="99%"></stop>
            <stop stop-color="#D8D8D8" stop-opacity="0.8" offset="100%"></stop>
        </linearGradient>
        <linearGradient x1="42.1908%" y1="77.88%" x2="57.8092%" y2="22.11%" id="linearGradient-5">
            <stop stop-color="#FFF9EF" stop-opacity="0" offset="0%"></stop>
            <stop stop-color="#FEF8EF" stop-opacity="0.02" offset="17%"></stop>
            <stop stop-color="#FBF5EE" stop-opacity="0.06" offset="32%"></stop>
            <stop stop-color="#F5F1EC" stop-opacity="0.14" offset="46%"></stop>
            <stop stop-color="#EDEBEA" stop-opacity="0.26" offset="60%"></stop>
            <stop stop-color="#E3E2E7" stop-opacity="0.4" offset="74%"></stop>
            <stop stop-color="#D6D8E4" stop-opacity="0.58" offset="87%"></stop>
            <stop stop-color="#C8CDE0" stop-opacity="0.79" offset="99%"></stop>
            <stop stop-color="#C7CCE0" stop-opacity="0.8" offset="100%"></stop>
        </linearGradient>
        <linearGradient x1="42.1908%" y1="77.88%" x2="57.8092%" y2="22.11%" id="linearGradient-6">
            <stop stop-color="#D8D8D8" stop-opacity="0" offset="0%"></stop>
            <stop stop-color="#D8D8D8" stop-opacity="0.02" offset="17%"></stop>
            <stop stop-color="#D8D8D8" stop-opacity="0.06" offset="32%"></stop>
            <stop stop-color="#D8D8D8" stop-opacity="0.14" offset="46%"></stop>
            <stop stop-color="#D8D8D8" stop-opacity="0.26" offset="60%"></stop>
            <stop stop-color="#D8D8D8" stop-opacity="0.4" offset="74%"></stop>
            <stop stop-color="#D8D8D8" stop-opacity="0.58" offset="87%"></stop>
            <stop stop-color="#D8D8D8" stop-opacity="0.79" offset="99%"></stop>
            <stop stop-color="#D8D8D8" stop-opacity="0.8" offset="100%"></stop>
        </linearGradient>
        <linearGradient x1="42.1936%" y1="77.89%" x2="57.8092%" y2="22.12%" id="linearGradient-7">
            <stop stop-color="#FFF9EF" stop-opacity="0" offset="0%"></stop>
            <stop stop-color="#FEF8EF" stop-opacity="0.02" offset="17%"></stop>
            <stop stop-color="#FBF5EE" stop-opacity="0.06" offset="32%"></stop>
            <stop stop-color="#F5F1EC" stop-opacity="0.14" offset="46%"></stop>
            <stop stop-color="#EDEBEA" stop-opacity="0.26" offset="60%"></stop>
            <stop stop-color="#E3E2E7" stop-opacity="0.4" offset="74%"></stop>
            <stop stop-color="#D6D8E4" stop-opacity="0.58" offset="87%"></stop>
            <stop stop-color="#C8CDE0" stop-opacity="0.79" offset="99%"></stop>
            <stop stop-color="#C7CCE0" stop-opacity="0.8" offset="100%"></stop>
        </linearGradient>
        <linearGradient x1="42.1936%" y1="77.89%" x2="57.8092%" y2="22.12%" id="linearGradient-8">
            <stop stop-color="#D8D8D8" stop-opacity="0" offset="0%"></stop>
            <stop stop-color="#D8D8D8" stop-opacity="0.02" offset="17%"></stop>
            <stop stop-color="#D8D8D8" stop-opacity="0.06" offset="32%"></stop>
            <stop stop-color="#D8D8D8" stop-opacity="0.14" offset="46%"></stop>
            <stop stop-color="#D8D8D8" stop-opacity="0.26" offset="60%"></stop>
            <stop stop-color="#D8D8D8" stop-opacity="0.4" offset="74%"></stop>
            <stop stop-color="#D8D8D8" stop-opacity="0.58" offset="87%"></stop>
            <stop stop-color="#D8D8D8" stop-opacity="0.79" offset="99%"></stop>
            <stop stop-color="#D8D8D8" stop-opacity="0.8" offset="100%"></stop>
        </linearGradient>
    </defs>
    <g id="网络缺省页" stroke="none" stroke-width="1" fill="none" fill-rule="evenodd">
        <g fill-rule="nonzero">
            <ellipse id="椭圆形" fill="url(#linearGradient-2)" cx="250" cy="250.592113" rx="164.686449" ry="52.5934144"></ellipse>
            <path d="M49.2353078,67.5640191 L52.8012607,67.5640191 C60.5332472,67.5640191 66.8012607,73.8320326 66.8012607,81.5640191 L66.8012607,166.299565 C66.8012607,174.031552 60.5332472,180.299565 52.8012607,180.299565 L49.2353078,180.299565 C41.5033213,180.299565 35.2353078,174.031552 35.2353078,166.299565 L35.2353078,81.5640191 C35.2353078,73.8320326 41.5033213,67.5640191 49.2353078,67.5640191 Z" id="矩形" fill="url(#linearGradient-4)" transform="translate(51.018284, 123.931792) rotate(45.000000) translate(-51.018284, -123.931792) "></path>
            <path d="M426.901046,134.078072 L430.466999,134.078072 C438.198985,134.078072 444.466999,140.346086 444.466999,148.078072 L444.466999,232.813618 C444.466999,240.545605 438.198985,246.813618 430.466999,246.813618 L426.901046,246.813618 C419.16906,246.813618 412.901046,240.545605 412.901046,232.813618 L412.901046,148.078072 C412.901046,140.346086 419.16906,134.078072 426.901046,134.078072 Z" id="矩形" fill="url(#linearGradient-6)" transform="translate(428.684022, 190.445845) rotate(45.000000) translate(-428.684022, -190.445845) "></path>
            <path d="M436.198739,-5.34948881 L439.764692,-5.34948881 C447.496679,-5.34948881 453.764692,0.918524697 453.764692,8.65051119 L453.764692,93.3860572 C453.764692,101.118044 447.496679,107.386057 439.764692,107.386057 L436.198739,107.386057 C428.466753,107.386057 422.198739,101.118044 422.198739,93.3860572 L422.198739,8.65051119 C422.198739,0.918524697 428.466753,-5.34948881 436.198739,-5.34948881 Z" id="矩形" fill="url(#linearGradient-8)" transform="translate(437.981716, 51.018284) rotate(45.000000) translate(-437.981716, -51.018284) "></path>
            <g id="cpu" transform="translate(173.000000, 47.000000)" fill="#D8D8D8">
                <path d="M152.959811,53.5218306 L152.959811,41.2882693 L138.471631,41.3285113 L138.471631,22.3544187 C138.471631,17.5455024 136,14.8492898 131.1974,14.8492898 L113.735225,14.8492898 L113.735225,0 L101.377069,0 L101.377069,14.8492898 L82.8096927,14.8492898 L82.8096927,0 L70.4515366,0 L70.4314421,14.8492898 L51.8640662,14.8492898 L51.9042553,0 L39.4858156,0 L39.5059102,14.8492898 L23.249409,14.8492898 C17.2813239,14.8492898 14.8297872,17.5455024 14.8699764,23.7830089 L14.749409,41.3285113 L0,41.3285113 L0,53.5218306 L14.749409,53.5218306 L14.749409,70.6045502 L0,70.5844292 L0,82.9588375 L14.749409,82.9990794 L14.749409,100.343372 L0,100.343372 L0,112.496449 L14.749409,112.496449 L14.749409,129.076144 C14.749409,135.91728 17.5023641,138.75434 24.3546099,138.75434 L39.5059102,138.75434 L39.4858156,153 L51.8238771,153 L51.8841608,138.75434 L70.4515366,138.75434 L70.4515366,153 L82.8498818,153 L82.8297872,138.75434 L101.397163,138.75434 L101.356974,153 L113.755319,153 L113.775414,138.75434 L130.313239,138.75434 C135.859338,138.75434 138.51182,133.86494 138.51182,129.076144 L138.51182,112.496449 L153,112.496449 L153,100.343372 L138.471631,100.343372 L138.471631,82.9990794 L152.959811,82.9990794 L152.959811,70.6447922 L138.471631,70.6045502 L138.471631,53.5218306 L152.959811,53.5218306 Z M126.093381,126.359811 L27.1276596,126.359811 L27.1276596,27.243819 L126.113475,27.243819 L126.113475,126.359811 L126.093381,126.359811 Z M47.8049645,110.725802 L107.244681,110.725802 C109.615839,110.725802 110.479905,109.096002 110.479905,106.943056 L110.479905,47.284324 C110.479905,44.7490794 108.751773,43.3406102 106.702128,43.3406102 L47.1820331,43.3406102 C44.0874704,43.3406102 43.1832151,44.4875066 43.1832151,47.6062599 L43.1832151,106.077854 C43.1832151,109.176486 44.7104019,110.725802 47.8049645,110.725802 Z" id="形状"></path>
            </g>
            <g id="编组-4" transform="translate(358.758607, 77.837178) rotate(34.000000) translate(-358.758607, -77.837178) translate(345.467434, 46.837178)" fill="#D8D8D8">
                <polygon id="路径" points="9.67387114 0.717366151 24.9552271 9.09494702e-13 17.2670915 22.8709372 26.5823457 21.9905333 6.08743046 62 13.5925152 31.3619438 0.582345714 30.6380562"></polygon>
                <polygon id="路径" points="7.13222683 0.0952329964 21.3903181 0.0952329964 14.2580913 22.1466324 23 22.1466324 5.29349931 61.095233 10.8096819 30.5919873 1.70530257e-13 30.5919873"></polygon>
            </g>
        </g>
    </g>
</svg>